<svg width="13" height="15" viewBox="0 0 13 15" fill="none" xmlns="http://www.w3.org/2000/svg">
<path fill-rule="evenodd" clip-rule="evenodd" d="M5.7708 14.8907L5.82266 14.9204L5.8434 14.9322C5.92565 14.9767 6.01769 15 6.1112 15C6.20471 15 6.29674 14.9767 6.379 14.9322L6.39974 14.9211L6.45234 14.8907C6.74207 14.7189 7.02479 14.5356 7.29981 14.3411C8.01177 13.8384 8.67698 13.2726 9.28736 12.6506C10.7275 11.1764 12.2231 8.96141 12.2231 6.11157C12.2231 4.49068 11.5792 2.93618 10.4331 1.79004C9.28696 0.643896 7.73246 0 6.11157 0C4.49068 0 2.93618 0.643896 1.79004 1.79004C0.643896 2.93618 0 4.49068 0 6.11157C0 8.96067 1.49641 11.1764 2.93578 12.6506C3.54593 13.2726 4.21089 13.8384 4.92259 14.3411C5.19785 14.5356 5.48081 14.719 5.7708 14.8907ZM6.11157 8.33396C6.70098 8.33396 7.26626 8.09981 7.68304 7.68304C8.09981 7.26626 8.33396 6.70098 8.33396 6.11157C8.33396 5.52216 8.09981 4.95688 7.68304 4.5401C7.26626 4.12332 6.70098 3.88918 6.11157 3.88918C5.52216 3.88918 4.95688 4.12332 4.5401 4.5401C4.12332 4.95688 3.88918 5.52216 3.88918 6.11157C3.88918 6.70098 4.12332 7.26626 4.5401 7.68304C4.95688 8.09981 5.52216 8.33396 6.11157 8.33396Z" fill="white"/>
</svg>
