<svg width="14" height="14" viewBox="0 0 14 14" fill="none" xmlns="http://www.w3.org/2000/svg">
<path fill-rule="evenodd" clip-rule="evenodd" d="M0 7C0 4.20378 0 2.80567 0.666316 1.79865C0.963858 1.34897 1.34897 0.963858 1.79865 0.666316C2.80567 0 4.20378 0 7 0C9.79622 0 11.1943 0 12.2013 0.666316C12.651 0.963858 13.0361 1.34897 13.3337 1.79865C14 2.80567 14 4.20378 14 7C14 9.79622 14 11.1943 13.3337 12.2013C13.0361 12.651 12.651 13.0361 12.2013 13.3337C11.1943 14 9.79622 14 7 14C4.20378 14 2.80567 14 1.79865 13.3337C1.34897 13.0361 0.963858 12.651 0.666316 12.2013C0 11.1943 0 9.79622 0 7ZM10.6239 7.00018C10.6239 9.00165 9.00135 10.6242 6.99988 10.6242C4.9984 10.6242 3.37589 9.00165 3.37589 7.00018C3.37589 4.99871 4.9984 3.37619 6.99988 3.37619C9.00135 3.37619 10.6239 4.99871 10.6239 7.00018ZM6.99988 9.39807C8.32419 9.39807 9.39777 8.3245 9.39777 7.00018C9.39777 5.67586 8.32419 4.60229 6.99988 4.60229C5.67556 4.60229 4.60198 5.67586 4.60198 7.00018C4.60198 8.3245 5.67556 9.39807 6.99988 9.39807ZM10.767 4.04565C11.2373 4.04565 11.6185 3.66441 11.6185 3.19412C11.6185 2.72383 11.2373 2.34259 10.767 2.34259C10.2967 2.34259 9.91546 2.72383 9.91546 3.19412C9.91546 3.66441 10.2967 4.04565 10.767 4.04565Z" fill="white"/>
</svg>
