<svg width="18" height="16" viewBox="0 0 18 16" fill="none" xmlns="http://www.w3.org/2000/svg">
<path d="M1.30442 7.07597C1.30442 7.07597 8.9673 3.93112 11.6249 2.82374C12.6437 2.38083 16.0986 0.963376 16.0986 0.963376C16.0986 0.963376 17.6933 0.343296 17.5603 1.84927C17.516 2.46941 17.1617 4.63978 16.8074 6.98738C16.2758 10.3095 15.7 13.9415 15.7 13.9415C15.7 13.9415 15.6114 14.9603 14.8584 15.1375C14.1054 15.3147 12.8651 14.5174 12.6437 14.3402C12.4665 14.2074 9.32164 12.2141 8.17 11.2396C7.85993 10.9739 7.50559 10.4424 8.21426 9.82222C9.80887 8.36051 11.7135 6.54447 12.8651 5.39283C13.3967 4.86127 13.9282 3.62105 11.7135 5.12702C8.56865 7.29746 5.46806 9.33499 5.46806 9.33499C5.46806 9.33499 4.75934 9.7779 3.43053 9.37925C2.10166 8.98065 0.551369 8.4491 0.551369 8.4491C0.551369 8.4491 -0.511627 7.78469 1.30442 7.07597Z" fill="white"/>
</svg>
