<svg width="227" height="65" viewBox="0 0 227 65" fill="none" xmlns="http://www.w3.org/2000/svg">
<path d="M37.208 1.07422C37.2567 1.4115 37.2485 1.50458 37.2344 1.57031C37.2193 1.64046 37.1922 1.71177 37.0898 1.96777C37.0185 2.1462 36.9298 2.37093 36.8291 2.6709L36.7246 2.99707C36.6239 3.32589 36.699 3.68406 36.9238 3.94434C37.1205 4.17202 37.4077 4.29696 37.7041 4.29004L37.832 4.2793L41.0439 3.78809C41.0512 4.62949 40.9714 5.19661 40.8555 5.59277C40.7078 6.09712 40.4936 6.36414 40.2334 6.61133C40.0709 6.76576 39.937 6.87227 39.7129 7.06934C39.5111 7.24674 39.2796 7.46236 39.0596 7.73828C38.6568 8.24335 38.3488 8.87502 38.1748 9.75684L38.1084 10.1504C37.9183 11.4982 38.0244 12.1064 38.0244 12.3994C38.0244 12.5665 38.0201 12.7877 37.4336 13.9756L37.4219 14.001C36.8502 15.2458 36.593 15.8559 36.5498 16.5557C36.5309 16.8617 36.5546 17.1977 36.5674 17.5205C36.5773 17.7716 36.5844 18.0822 36.5781 18.4932C35.5725 19.0461 34.8326 19.3256 34.2549 19.4385C33.6244 19.5616 33.1621 19.4928 32.71 19.3184C32.2045 19.1233 31.7165 18.8029 30.9873 18.3408C30.2849 17.8958 29.4334 17.3733 28.3203 16.9062C28.0658 16.7996 27.7784 16.8026 27.5264 16.915C27.3058 17.0135 27.1297 17.1885 27.0283 17.4053L26.9893 17.501C26.5917 18.6469 26.4444 19.506 26.6621 20.2773C26.7705 20.6611 26.9518 20.9602 27.1221 21.2031C27.2046 21.321 27.2941 21.4389 27.3721 21.542C27.4537 21.65 27.5314 21.7527 27.6094 21.8643C28.1591 22.6507 29.0291 24.2377 28.9424 29.5381C28.9381 29.8026 29.039 30.0586 29.2227 30.249C33.7721 34.9678 34.4013 42.6384 31.4521 49.1865C30.6952 50.8249 29.1536 52.8262 27.2666 54.5498C25.3698 56.2823 23.2427 57.6257 21.377 58.0781C21.0864 58.1487 20.8429 58.346 20.7129 58.6152C20.5829 58.8846 20.5796 59.1982 20.7051 59.4697C21.0173 60.145 21.6957 60.6038 22.3389 60.9248C23.0268 61.2681 23.8899 61.5574 24.8438 61.7939C26.7572 62.2684 29.1717 62.5644 31.5977 62.6143C34.0193 62.664 36.5139 62.4697 38.5732 61.9268C40.5007 61.4185 42.339 60.5277 43.1289 58.9531L43.2021 58.7988L43.207 58.7871C44.699 55.3239 43.7822 51.1249 42.3389 48.1914L42.0439 47.6221L42.041 47.6182L41.5459 46.7344C41.3915 46.4634 41.2477 46.2144 41.1143 45.9844C40.8448 45.5198 40.6248 45.1448 40.4395 44.8115C40.0699 44.147 39.8873 43.7352 39.7939 43.3154C39.7006 42.8957 39.6816 42.3967 39.7539 41.5479C39.827 40.6897 39.9842 39.5609 40.208 37.8838C40.2762 37.3728 39.9446 36.8937 39.4424 36.7773C38.3379 36.5217 38.2037 36.4524 38.1104 36.3838C38.0502 36.3396 37.9855 36.2766 37.7842 36.0635C37.6645 35.9368 37.5141 35.7822 37.3213 35.5908C37.4277 34.9652 37.5984 34.5478 37.7832 34.2285C38.0307 33.8011 38.3086 33.5208 38.7139 33.0469C39.1065 32.5877 39.5355 32.0284 39.8496 31.1924C40.0618 30.6274 40.2083 29.9645 40.2812 29.1533C40.4417 29.1846 40.5833 29.2132 40.709 29.2344C41.0453 29.291 41.3993 29.3378 41.7197 29.2852C42.1689 29.2113 42.4285 28.9725 42.582 28.8086C42.7028 28.6797 42.7311 28.6366 42.8438 28.5488C42.8796 28.5209 42.9137 28.4905 42.9453 28.458L43.0332 28.3555C43.0476 28.336 43.0603 28.3165 43.0732 28.2988C43.7542 28.8975 43.9808 29.448 44.666 30.6904L45.0859 31.4326C45.7599 32.6289 45.8556 33.1159 45.8379 33.5439C45.8273 33.7979 45.7742 34.0783 45.6738 34.5215C45.5769 34.9495 45.4438 35.4989 45.3203 36.2021C45.2594 36.5493 45.3862 36.9029 45.6533 37.1328C48.3528 39.4552 48.8747 40.3507 49.1191 40.8008C49.2503 41.0423 49.4193 41.4188 49.8086 41.7832C50.1632 42.1151 50.674 42.4231 51.459 42.8281C51.5355 42.8676 51.6171 42.8964 51.7012 42.915C53.4044 43.2924 54.5045 44.0141 55.2344 44.8643C55.9737 45.7253 56.391 46.7867 56.6055 47.9268C56.6811 48.3292 56.9947 48.645 57.3965 48.7236C57.6753 48.7781 57.956 48.7082 58.1768 48.5469C57.0468 50.6028 55.4064 52.732 53.293 54.874L52.5811 55.5791L52.5781 55.582C49.6828 58.4058 47.4235 59.8858 43.7959 61.3525L43.0518 61.6465L43.0459 61.6484C30.1381 66.7031 17.9536 63.0412 10.2959 56.0381L10.21 55.9678L9.88965 55.7295C3.20471 50.6454 0.0479662 41.4485 1.25 31.9385C2.46722 22.3088 8.15258 12.473 19.0195 6.5625C19.0368 6.5531 19.0536 6.54263 19.0703 6.53223C21.2174 5.19406 24.5179 3.44344 26.9219 2.76953L27.3906 2.64941H27.3936C28.1184 2.48 30.5009 2.06594 32.8887 1.69043C34.0735 1.50411 35.2438 1.32984 36.1885 1.20215C36.5838 1.14871 36.9263 1.10679 37.208 1.07422ZM51.1211 32.2314C51.5652 32.2817 52.1831 32.4922 52.9189 32.8584C54.3324 33.5618 55.8244 34.6554 56.6426 35.373L56.9502 35.6553L56.957 35.6631C59.6431 38.2235 60.454 41.2017 59.7676 44.4365C59.8085 44.1171 59.8355 43.7998 59.8496 43.4873C59.9126 42.0915 59.7276 40.7356 59.3877 39.6436L59.2324 39.1924L59.2305 39.1855L59.1201 38.9141C57.9418 36.1374 55.5924 34.5508 53.6758 33.5205C53.1768 33.2523 52.6969 33.0158 52.2695 32.8076C51.834 32.5954 51.4675 32.4187 51.1611 32.2539C51.1474 32.2465 51.1343 32.2386 51.1211 32.2314Z" fill="white" stroke="white" stroke-width="2" stroke-linejoin="round"/>
<path d="M87.26 39.72C85.74 39.72 84.44 39.42 83.36 38.82C82.28 38.22 81.4467 37.38 80.86 36.3C80.2867 35.2067 80 33.92 80 32.44C80 31.3333 80.16 30.34 80.48 29.46C80.8133 28.5667 81.2933 27.8067 81.92 27.18C82.5467 26.54 83.3067 26.0467 84.2 25.7C85.1067 25.3533 86.1267 25.18 87.26 25.18C87.9267 25.18 88.6 25.2667 89.28 25.44C89.9733 25.6 90.5733 25.8333 91.08 26.14C91.4133 26.3267 91.64 26.56 91.76 26.84C91.88 27.12 91.9133 27.4 91.86 27.68C91.82 27.96 91.7067 28.2 91.52 28.4C91.3467 28.6 91.1267 28.7267 90.86 28.78C90.5933 28.8333 90.2933 28.7733 89.96 28.6C89.56 28.36 89.14 28.1867 88.7 28.08C88.26 27.9733 87.8133 27.92 87.36 27.92C86.4667 27.92 85.7133 28.1 85.1 28.46C84.5 28.8067 84.0467 29.3133 83.74 29.98C83.4333 30.6467 83.28 31.4667 83.28 32.44C83.28 33.4 83.4333 34.22 83.74 34.9C84.0467 35.58 84.5 36.1 85.1 36.46C85.7133 36.8067 86.4667 36.98 87.36 36.98C87.7867 36.98 88.22 36.9267 88.66 36.82C89.1133 36.7133 89.5467 36.5467 89.96 36.32C90.3067 36.1467 90.6133 36.0867 90.88 36.14C91.16 36.18 91.3867 36.3 91.56 36.5C91.7467 36.6867 91.86 36.9133 91.9 37.18C91.9533 37.4467 91.9267 37.7133 91.82 37.98C91.7133 38.2467 91.5133 38.4733 91.22 38.66C90.7267 38.9933 90.12 39.2533 89.4 39.44C88.68 39.6267 87.9667 39.72 87.26 39.72ZM95.7119 39.5C95.1919 39.5 94.7919 39.36 94.5119 39.08C94.2319 38.8 94.0919 38.4 94.0919 37.88V27.02C94.0919 26.5 94.2319 26.1 94.5119 25.82C94.7919 25.54 95.1919 25.4 95.7119 25.4H102.692C103.092 25.4 103.392 25.5067 103.592 25.72C103.805 25.92 103.912 26.2133 103.912 26.6C103.912 27 103.805 27.3067 103.592 27.52C103.392 27.72 103.092 27.82 102.692 27.82H97.0519V31.12H102.232C102.645 31.12 102.952 31.2267 103.152 31.44C103.365 31.64 103.472 31.94 103.472 32.34C103.472 32.74 103.365 33.0467 103.152 33.26C102.952 33.46 102.645 33.56 102.232 33.56H97.0519V37.08H102.692C103.092 37.08 103.392 37.1867 103.592 37.4C103.805 37.6 103.912 37.8933 103.912 38.28C103.912 38.68 103.805 38.9867 103.592 39.2C103.392 39.4 103.092 39.5 102.692 39.5H95.7119ZM116.981 39.68C116.475 39.68 116.088 39.54 115.821 39.26C115.555 38.98 115.421 38.5867 115.421 38.08V27.96H111.061V30.52C111.061 31.64 110.981 32.6533 110.821 33.56C110.661 34.4667 110.428 35.2867 110.121 36.02C109.815 36.74 109.435 37.38 108.981 37.94C108.541 38.5 108.035 38.98 107.461 39.38C107.115 39.6333 106.755 39.7267 106.381 39.66C106.021 39.6067 105.708 39.4067 105.441 39.06C105.175 38.7 105.081 38.3467 105.161 38C105.255 37.64 105.475 37.3267 105.821 37.06C106.235 36.7533 106.588 36.3867 106.881 35.96C107.188 35.52 107.435 35.0067 107.621 34.42C107.821 33.8333 107.968 33.1533 108.061 32.38C108.155 31.5933 108.201 30.7067 108.201 29.72V27.02C108.201 26.5 108.341 26.1 108.621 25.82C108.901 25.54 109.308 25.4 109.841 25.4H116.901C117.435 25.4 117.841 25.54 118.121 25.82C118.401 26.1 118.541 26.5 118.541 27.02V38.08C118.541 38.5867 118.408 38.98 118.141 39.26C117.875 39.54 117.488 39.68 116.981 39.68ZM122.918 39.68C122.411 39.68 122.024 39.54 121.758 39.26C121.491 38.98 121.358 38.5867 121.358 38.08V26.82C121.358 26.3133 121.491 25.92 121.758 25.64C122.024 25.36 122.411 25.22 122.918 25.22C123.411 25.22 123.791 25.36 124.058 25.64C124.324 25.92 124.458 26.3133 124.458 26.82V38.08C124.458 38.5867 124.324 38.98 124.058 39.26C123.804 39.54 123.424 39.68 122.918 39.68ZM128.855 39.68C128.348 39.68 127.962 39.54 127.695 39.26C127.428 38.98 127.295 38.5867 127.295 38.08V26.82C127.295 26.3133 127.428 25.92 127.695 25.64C127.962 25.36 128.348 25.22 128.855 25.22C129.348 25.22 129.728 25.36 129.995 25.64C130.262 25.92 130.395 26.3133 130.395 26.82V31.06H136.955V26.82C136.955 26.3133 137.088 25.92 137.355 25.64C137.622 25.36 138.002 25.22 138.495 25.22C139.002 25.22 139.388 25.36 139.655 25.64C139.922 25.92 140.055 26.3133 140.055 26.82V38.08C140.055 38.5867 139.922 38.98 139.655 39.26C139.388 39.54 139.002 39.68 138.495 39.68C138.002 39.68 137.622 39.54 137.355 39.26C137.088 38.98 136.955 38.5867 136.955 38.08V33.64H130.395V38.08C130.395 38.5867 130.262 38.98 129.995 39.26C129.742 39.54 129.362 39.68 128.855 39.68ZM143.3 39.68C142.927 39.68 142.62 39.5933 142.38 39.42C142.154 39.2467 142.007 39.0133 141.94 38.72C141.887 38.4267 141.947 38.1 142.12 37.74L147.24 26.52C147.454 26.0667 147.707 25.74 148 25.54C148.294 25.3267 148.634 25.22 149.02 25.22C149.407 25.22 149.747 25.3267 150.04 25.54C150.334 25.74 150.58 26.0667 150.78 26.52L155.94 37.74C156.114 38.1 156.174 38.4333 156.12 38.74C156.08 39.0333 155.947 39.2667 155.72 39.44C155.494 39.6 155.2 39.68 154.84 39.68C154.387 39.68 154.034 39.5733 153.78 39.36C153.54 39.1467 153.327 38.8133 153.14 38.36L151.94 35.58L153.18 36.44H144.84L146.08 35.58L144.9 38.36C144.7 38.8267 144.487 39.1667 144.26 39.38C144.047 39.58 143.727 39.68 143.3 39.68ZM148.98 28.7L146.42 34.8L145.88 34.02H152.14L151.6 34.8L149.02 28.7H148.98Z" fill="white"/>
</svg>
